Coordinates
version=1
nRows=9
nColumns=24
inDegrees=yes

Units are S.I. units (second, meters, Newtons, ...)
Angles are in degrees.

endheader
time	pelvis_tilt	pelvis_list	pelvis_rotation	pelvis_tx	pelvis_ty	pelvis_tz	hip_flexion_r	hip_adduction_r	hip_rotation_r	knee_angle_r	ankle_angle_r	subtalar_angle_r	mtp_angle_r	hip_flexion_l	hip_adduction_l	hip_rotation_l	knee_angle_l	ankle_angle_l	subtalar_angle_l	mtp_angle_l	lumbar_extension	lumbar_bending	lumbar_rotation
      5.38000000	      2.13055672	      3.34789080	     -2.96952506	     -1.85543293	      1.06551743	      0.21883655	     16.98190521	     -2.76976169	     -0.89342879	    -55.52019337	     -6.23430709	    -34.08852561	      0.00000000	     -2.48873899	      9.03382662	      4.25386984	     -4.01697567	      4.97551008	    -22.76608731	      0.00000000	    -15.47283748	     -4.46617448	     -3.90741515
      5.39000000	      1.99687085	      3.27717896	     -2.54973632	     -1.84520824	      1.06558218	      0.21902549	     17.98561076	     -2.53613859	     -0.57722737	    -54.22872309	     -4.26502517	    -32.70691498	      0.00000000	     -3.21342646	      8.93857916	      4.59104181	     -3.56846562	      5.01862905	    -22.93460598	      0.00000000	    -15.63965141	     -4.35203700	     -4.22878654
      5.40000000	      1.87657043	      3.24134934	     -2.10858203	     -1.83495083	      1.06557398	      0.21923454	     18.87089446	     -2.37508522	     -0.30103777	    -52.67594440	     -2.68276480	    -31.63225047	      0.00000000	     -3.94644406	      8.87705733	      4.90347682	     -3.13014042	      5.00788331	    -23.06586533	      0.00000000	    -15.80337547	     -4.27888827	     -4.55475476
      5.41000000	      1.74843151	      3.24147527	     -1.68472385	     -1.82465977	      1.06545995	      0.21949579	     19.66306346	     -2.27494455	     -0.02193070	    -50.87104723	     -1.39592462	    -30.79339545	      0.00000000	     -4.65878596	      8.85514748	      5.15831345	     -2.71058233	      4.97616016	    -23.26423205	      0.00000000	    -15.93575849	     -4.25228480	     -4.85700835
      5.42000000	      1.63303516	      3.26570195	     -1.26225104	     -1.81431023	      1.06529681	      0.21978906	     20.32382379	     -2.23103894	      0.23872890	    -48.80269293	     -0.39482889	    -30.15120021	      0.00000000	     -5.38289573	      8.85904444	      5.37461127	     -2.29958232	      4.92867010	    -23.45042603	      0.00000000	    -16.06083800	     -4.25598899	     -5.14858020
      5.43000000	      1.51450945	      3.30651721	     -0.84635195	     -1.80388576	      1.06507275	      0.22010859	     20.86638480	     -2.23741473	      0.47644907	    -46.47968292	      0.45489981	    -29.54176831	      0.00000000	     -6.10369528	      8.88035450	      5.54485006	     -1.89528212	      4.85800442	    -23.65775217	      0.00000000	    -16.15725294	     -4.28026331	     -5.43030678
      5.44000000	      1.40295422	      3.36445577	     -0.43548444	     -1.79337103	      1.06480957	      0.22044348	     21.27511282	     -2.29916524	      0.67771196	    -43.90951185	      1.24820546	    -28.83718195	      0.00000000	     -6.83882672	      8.91688534	      5.68087771	     -1.48829652	      4.75065158	    -23.86728122	      0.00000000	    -16.23811267	     -4.32330749	     -5.70790765
      5.45000000	      1.27343332	      3.44548504	     -0.02470870	     -1.78275753	      1.06447598	      0.22077407	     21.57986865	     -2.42794581	      0.81895530	    -41.11466974	      2.09123138	    -27.86869181	      0.00000000	     -7.56120077	      8.97223238	      5.78863837	     -1.08064891	      4.54484659	    -24.12311593	      0.00000000	    -16.27467727	     -4.38863615	     -6.00627494
      5.46000000	      1.16920839	      3.53168890	      0.38965329	     -1.77200888	      1.06412964	      0.22109497	     21.72467191	     -2.60227449	      0.88106007	    -38.09642178	      2.96922010	    -26.63797783	      0.00000000	     -8.33283563	      9.02059019	      5.93386866	     -0.65388838	      4.37075907	    -24.30882899	      0.00000000	    -16.31761951	     -4.45324182	     -6.29590149
